<svg width="82" height="71" viewBox="0 0 82 71" fill="none" xmlns="http://www.w3.org/2000/svg">
<path d="M40.9967 0.333752C41.7925 1.71717 42.5145 2.97669 43.2409 4.2337C47.4776 11.5635 51.7128 18.8937 55.9625 26.216C56.1853 26.6002 56.2253 26.882 55.9924 27.2832C51.7642 34.565 47.5685 41.8653 43.3308 49.1411C39.1856 56.2586 33.469 61.7503 26.1383 65.5443C20.1085 68.6649 13.687 70.2162 6.9083 70.3196C5.10121 70.3471 3.29313 70.3246 1.48554 70.3251C1.23673 70.3251 0.987929 70.3251 0.572754 70.3251C14.0687 46.9578 27.4922 23.715 40.9967 0.333252V0.333752Z" fill="white"/>
<path d="M81.4278 70.3248C81.0321 70.3248 80.8017 70.3248 80.5714 70.3248C72.9938 70.3248 65.4158 70.3223 57.8382 70.3248C53.6704 70.3258 50.1757 68.836 47.3963 65.6974C44.015 61.8789 43.1292 55.8222 45.5508 51.3497C48.0608 46.7138 50.7687 42.1848 53.3962 37.6129C54.882 35.0274 56.3803 32.4484 57.9601 29.7166C65.796 43.276 73.5714 56.7309 81.4278 70.3258V70.3248Z" fill="white"/>
</svg>
