<svg width="1573" height="226" viewBox="0 0 1573 226" fill="none" xmlns="http://www.w3.org/2000/svg">
<path d="M278.404 222L249.904 138H86.9043L58.4043 222H0.404297L128.404 -130H208.404L336.404 222H278.404ZM235.404 94L177.404 -78C174.738 -87 173.071 -94 172.404 -99C172.404 -99.3333 172.238 -100 171.904 -101C171.904 -102.333 171.571 -103.333 170.904 -104C170.238 -104.667 169.404 -105 168.404 -105C167.071 -105 166.071 -104.5 165.404 -103.5C165.071 -102.5 164.738 -101.5 164.404 -100.5C164.404 -99.8333 164.404 -99.3333 164.404 -99C163.738 -94 162.071 -87 159.404 -78L101.404 94H235.404Z" fill="url(#paint0_linear_201_176)" fill-opacity="0.65"/>
<path d="M559.842 -68C563.842 -73 570.675 -78 580.342 -83C583.342 -84.3333 584.175 -86.1667 582.842 -88.5C581.842 -90.1667 579.842 -90.5 576.842 -89.5C570.842 -87.1667 563.842 -86 555.842 -86H360.342V-130H624.342V-66L424.842 160C420.842 165 414.008 170 404.342 175C401.342 176.333 400.508 178.167 401.842 180.5C402.842 182.167 404.842 182.5 407.842 181.5C413.842 179.167 420.842 178 428.842 178H624.342V222H360.342V158L559.842 -68Z" fill="url(#paint1_linear_201_176)" fill-opacity="0.65"/>
<path d="M952.354 86C952.354 130.667 940.02 165.167 915.354 189.5C891.02 213.833 858.02 226 816.354 226C774.354 226 741.187 213.833 716.854 189.5C692.52 165.167 680.354 130.667 680.354 86V-130H732.354V90C732.354 121.333 740.354 144.5 756.354 159.5C772.687 174.5 792.687 182 816.354 182C830.687 182 844.187 178.833 856.854 172.5C869.52 166.167 879.854 156.167 887.854 142.5C896.187 128.5 900.354 111 900.354 90V-130H952.354V86Z" fill="url(#paint2_linear_201_176)" fill-opacity="0.65"/>
<path d="M1147.29 -130C1193.96 -130 1227.79 -120.333 1248.79 -101C1269.79 -82 1280.29 -55.6667 1280.29 -22C1280.29 1.00001 1271.79 20.8333 1254.79 37.5C1238.12 53.8333 1216.29 63.8333 1189.29 67.5C1185.96 68.1667 1184.29 69.6667 1184.29 72C1184.29 75 1186.12 76.5 1189.79 76.5C1212.12 77.5 1228.12 81.6667 1237.79 89C1247.79 96.3334 1254.96 105.833 1259.29 117.5L1296.29 222H1233.29L1211.79 139C1207.12 120.667 1197.96 108 1184.29 101C1170.62 93.6667 1150.29 90 1123.29 90H1068.29V222H1016.29V-130H1147.29ZM1142.79 46C1158.79 46 1173.29 43 1186.29 37C1199.29 31 1209.46 23 1216.79 13C1224.46 2.66668 1228.29 -8.66665 1228.29 -21C1228.29 -42 1221.96 -58 1209.29 -69C1196.96 -80.3333 1178.79 -86 1154.79 -86H1068.29V46H1142.79Z" fill="url(#paint3_linear_201_176)" fill-opacity="0.65"/>
<path d="M1392.51 -86V24H1540.51V68H1392.51V178H1572.51V222H1340.51V-130H1572.51V-86H1392.51Z" fill="url(#paint4_linear_201_176)" fill-opacity="0.65"/>
<defs>
<linearGradient id="paint0_linear_201_176" x1="798.5" y1="-0.499997" x2="798.5" y2="222" gradientUnits="userSpaceOnUse">
<stop stop-color="white"/>
<stop offset="1" stop-color="white" stop-opacity="0"/>
</linearGradient>
<linearGradient id="paint1_linear_201_176" x1="798.5" y1="-0.499997" x2="798.5" y2="222" gradientUnits="userSpaceOnUse">
<stop stop-color="white"/>
<stop offset="1" stop-color="white" stop-opacity="0"/>
</linearGradient>
<linearGradient id="paint2_linear_201_176" x1="798.5" y1="-0.499997" x2="798.5" y2="222" gradientUnits="userSpaceOnUse">
<stop stop-color="white"/>
<stop offset="1" stop-color="white" stop-opacity="0"/>
</linearGradient>
<linearGradient id="paint3_linear_201_176" x1="798.5" y1="-0.499997" x2="798.5" y2="222" gradientUnits="userSpaceOnUse">
<stop stop-color="white"/>
<stop offset="1" stop-color="white" stop-opacity="0"/>
</linearGradient>
<linearGradient id="paint4_linear_201_176" x1="798.5" y1="-0.499997" x2="798.5" y2="222" gradientUnits="userSpaceOnUse">
<stop stop-color="white"/>
<stop offset="1" stop-color="white" stop-opacity="0"/>
</linearGradient>
</defs>
</svg>
