<svg width="41" height="35" viewBox="0 0 41 35" fill="none" xmlns="http://www.w3.org/2000/svg">
<path d="M20.4982 0.000250049C20.8961 0.69196 21.2571 1.32172 21.6203 1.95023C23.7387 5.61511 25.8563 9.28025 27.9811 12.9414C28.0925 13.1335 28.1125 13.2744 27.9961 13.475C25.882 17.1159 23.7841 20.766 21.6653 24.4039C19.5927 27.9627 16.7344 30.7085 13.069 32.6055C10.0541 34.1658 6.84338 34.9415 3.45403 34.9932C2.55048 35.0069 1.64644 34.9957 0.742648 34.9959C0.618245 34.9959 0.493843 34.9959 0.286255 34.9959C7.03423 23.3123 13.746 11.6909 20.4982 0V0.000250049Z" fill="#121212"/>
<path d="M40.7137 34.9959C40.5159 34.9959 40.4007 34.9959 40.2855 34.9959C36.4967 34.9959 32.7077 34.9947 28.9189 34.9959C26.835 34.9964 25.0877 34.2515 23.698 32.6822C22.0073 30.773 21.5644 27.7446 22.7752 25.5083C24.0302 23.1904 25.3842 20.9259 26.6979 18.6399C27.4408 17.3472 28.19 16.0577 28.9799 14.6918C32.8978 21.4715 36.7855 28.199 40.7137 34.9964V34.9959Z" fill="#121212"/>
</svg>
