<svg width="143" height="143" viewBox="0 0 143 143" fill="none" xmlns="http://www.w3.org/2000/svg">
<g clip-path="url(#clip0_12_75)">
<path d="M118.1 35.3238V102.157C118.1 103.777 117.238 105.275 115.837 106.09L73.4148 130.735C72.0022 131.556 70.2588 131.556 68.8462 130.735L26.4239 106.09C25.0231 105.277 24.1609 103.779 24.1609 102.157V35.3238C24.1609 33.7037 25.0231 32.2057 26.4239 31.3909L68.845 6.74617C70.2576 5.92543 72.0011 5.92543 73.4136 6.74617L115.836 31.3909C117.237 32.2046 118.099 33.7025 118.099 35.3238H118.1Z" fill="url(#paint0_linear_12_75)"/>
<path d="M61.5911 87.9746C61.9635 87.9746 62.2992 87.8678 62.5969 87.6543C62.8946 87.4408 63.1057 87.1609 63.229 86.817H63.6323C63.5018 87.2617 63.2468 87.6282 62.8697 87.9141C62.4913 88.1999 62.0655 88.3434 61.5923 88.3434C61.0028 88.3434 60.4988 88.1358 60.0801 87.7195C59.6626 87.3032 59.4539 86.8027 59.4539 86.2156C59.4539 85.6286 59.6626 85.1281 60.0801 84.7117C60.4976 84.2954 61.0016 84.0879 61.5923 84.0879C62.0655 84.0879 62.4913 84.2314 62.8697 84.5172C63.248 84.8031 63.5018 85.1696 63.6323 85.6143H63.229C63.1057 85.2704 62.8946 84.9905 62.5969 84.777C62.2992 84.5635 61.9635 84.4568 61.5911 84.4568C61.1108 84.4568 60.7028 84.6287 60.3671 84.9739C60.0315 85.3178 59.8642 85.7329 59.8642 86.2168C59.8642 86.7007 60.0326 87.1147 60.3671 87.4598C60.7028 87.8038 61.1108 87.9769 61.5911 87.9769V87.9746Z" fill="#BDC4DD"/>
<path d="M64.5457 87.8761H67.1075V88.2497H64.1448V84.1804H67.1075V84.554H64.5457V86.0247H66.7339V86.4007H64.5457V87.8761Z" fill="#BDC4DD"/>
<path d="M70.6975 85.4756C70.6975 85.7507 70.6168 85.9998 70.4543 86.2228C70.2919 86.4458 70.0819 86.6035 69.8234 86.6972L70.605 88.2497H70.1709L69.4237 86.7743H68.0218V88.2497H67.6221V84.1804H69.3845C69.7463 84.1804 70.0558 84.3061 70.3132 84.5588C70.5706 84.8114 70.6987 85.1174 70.6987 85.4756H70.6975ZM70.0226 86.1315C70.197 85.9524 70.2835 85.7341 70.2835 85.4768C70.2835 85.2194 70.197 85.0012 70.0238 84.8221C69.8506 84.643 69.6372 84.5528 69.3822 84.5528H68.0206V86.3995H69.3822C69.6348 86.3995 69.8483 86.3094 70.0214 86.1303L70.0226 86.1315Z" fill="#BDC4DD"/>
<path d="M74.1311 84.554H72.7635V88.2497H72.3638V84.554H70.9963V84.1804H74.1311V84.554Z" fill="#BDC4DD"/>
<path d="M74.5391 88.2497V84.1804H74.9388V88.2497H74.5391Z" fill="#BDC4DD"/>
<path d="M78.4554 84.554H75.9908V86.0247H78.0865V86.4007H75.9908V88.2497H75.5911V84.1804H78.4554V84.554Z" fill="#BDC4DD"/>
<path d="M78.8611 88.2497V84.1804H79.2608V88.2497H78.8611Z" fill="#BDC4DD"/>
<path d="M80.3127 87.8761H82.8746V88.2497H79.9119V84.1804H82.8746V84.554H80.3127V86.0247H82.501V86.4007H80.3127V87.8761ZM80.8607 84.0132V83.7238L81.9625 83.3455V83.7404L80.8607 84.0132Z" fill="#BDC4DD"/>
<path d="M68.3031 55.1782H67.7634L67.308 54.0052H64.8232L64.3642 55.1782H63.8281L65.8314 49.9988H66.2998L68.3031 55.1782ZM65.0011 53.5284H67.1289L66.0697 50.7365H66.0567L65.0011 53.5284Z" fill="#BDC4DD"/>
<path d="M71.8945 51.6569L69.3659 54.6884V54.7015H71.8945V55.1771H68.7112V54.7015L71.2374 51.6699V51.6569H68.7112V51.1777H71.8945V51.6569Z" fill="#BDC4DD"/>
<path d="M75.9816 51.1777V55.1771H75.4692V54.4998H75.4562C75.3589 54.7062 75.1834 54.8912 74.9284 55.0525C74.6734 55.2138 74.3983 55.2957 74.1041 55.2957C73.6119 55.2957 73.2264 55.1498 72.9477 54.8568C72.669 54.5651 72.5291 54.1796 72.5291 53.7004V51.1777H73.0379V53.7004C73.0379 54.0373 73.1399 54.3101 73.3427 54.5164C73.5455 54.7228 73.8135 54.8272 74.1456 54.8272C74.4777 54.8272 74.7802 54.7098 75.0565 54.4749C75.3317 54.2401 75.4692 53.9626 75.4692 53.6435V51.1789H75.9816V51.1777Z" fill="#BDC4DD"/>
<path d="M78.5006 51.0603V51.5727C78.1839 51.5857 77.9112 51.702 77.6834 51.919C77.4557 52.136 77.3336 52.4005 77.3181 52.7136V55.1782H76.8093V51.1789H77.3181V51.8158H77.3347C77.4308 51.632 77.5909 51.4612 77.8115 51.307C78.0333 51.1516 78.2622 51.0698 78.5006 51.0603Z" fill="#BDC4DD"/>
<path d="M59.557 71.2051H57.5241V69.4723H57.4684C56.6025 70.79 55.4011 71.4494 53.864 71.4494C52.3269 71.4494 51.1242 70.911 50.0746 69.8317C49.0249 68.7536 48.4995 67.4228 48.4995 65.8395C48.4995 64.2561 49.0546 62.9135 50.1659 61.8401C51.276 60.7668 52.6649 60.2295 54.3325 60.2295C55.5149 60.2295 56.6049 60.5592 57.6012 61.2175C58.5975 61.8769 59.2403 62.7439 59.5285 63.8196H57.3213C57.0556 63.2847 56.663 62.8566 56.1447 62.5375C55.6252 62.2185 55.0216 62.0596 54.3325 62.0596C53.2757 62.0596 52.3921 62.432 51.6817 63.1768C50.9712 63.9216 50.6166 64.8088 50.6166 65.8383C50.6166 66.8678 50.9665 67.7383 51.6674 68.4784C52.3684 69.2185 53.2188 69.5897 54.221 69.5897C55.0405 69.5897 55.7676 69.3075 56.4009 68.7441C57.0343 68.1807 57.4185 67.5082 57.5538 66.7254H54.3336V64.9227H59.5582V71.2028L59.557 71.2051Z" fill="url(#paint1_linear_12_75)"/>
<path d="M69.8945 60.4761V67.469C69.8945 68.6799 69.496 69.6465 68.7001 70.3677C67.9043 71.0888 66.876 71.4505 65.6164 71.4505C64.3569 71.4505 63.3286 71.0935 62.5327 70.3783C61.7369 69.6632 61.3384 68.6942 61.3384 67.469V60.4761H63.3713V67.469C63.3713 68.1166 63.5836 68.6372 64.007 69.0298C64.4304 69.4236 64.9665 69.6205 65.6141 69.6205C66.2616 69.6205 66.7977 69.4248 67.2247 69.0334C67.6505 68.642 67.864 68.1201 67.864 67.469V60.4761H69.8969H69.8945Z" fill="url(#paint2_linear_12_75)"/>
<path d="M71.606 71.205V60.4761H73.6388V71.205H71.606Z" fill="url(#paint3_linear_12_75)"/>
<path d="M75.3503 60.4761H79.0804C80.6448 60.4761 81.9554 60.9837 83.0098 61.999C84.0642 63.0142 84.592 64.2951 84.592 65.8405C84.592 67.386 84.0642 68.6669 83.0098 69.6821C81.9554 70.6974 80.6448 71.205 79.0804 71.205H75.3503V60.4761ZM82.4749 65.8405C82.4749 64.8668 82.1428 64.0306 81.4798 63.3297C80.8168 62.6287 80.0162 62.2789 79.0804 62.2789H77.3832V69.4034H79.0804C80.0162 69.4034 80.8168 69.0559 81.4798 68.3597C82.144 67.6635 82.4749 66.8238 82.4749 65.8417V65.8405Z" fill="url(#paint4_linear_12_75)"/>
<path d="M87.9792 69.4034H93.8264V71.2062H85.9475V60.4773H93.8264V62.2801H87.9792V64.9273H92.8408V66.7301H87.9792V69.4058V69.4034Z" fill="url(#paint5_linear_12_75)"/>
<path d="M59.557 71.2051H57.5241V69.4723H57.4684C56.6025 70.79 55.4011 71.4494 53.864 71.4494C52.3269 71.4494 51.1242 70.911 50.0746 69.8317C49.0249 68.7536 48.4995 67.4228 48.4995 65.8395C48.4995 64.2561 49.0546 62.9135 50.1659 61.8401C51.276 60.7668 52.6649 60.2295 54.3325 60.2295C55.5149 60.2295 56.6049 60.5592 57.6012 61.2175C58.5975 61.8769 59.2403 62.7439 59.5285 63.8196H57.3213C57.0556 63.2847 56.663 62.8566 56.1447 62.5375C55.6252 62.2185 55.0216 62.0596 54.3325 62.0596C53.2757 62.0596 52.3921 62.432 51.6817 63.1768C50.9712 63.9216 50.6166 64.8088 50.6166 65.8383C50.6166 66.8678 50.9665 67.7383 51.6674 68.4784C52.3684 69.2185 53.2188 69.5897 54.221 69.5897C55.0405 69.5897 55.7676 69.3075 56.4009 68.7441C57.0343 68.1807 57.4185 67.5082 57.5538 66.7254H54.3336V64.9227H59.5582V71.2028L59.557 71.2051Z" fill="white"/>
<path d="M69.8945 60.4761V67.469C69.8945 68.6799 69.496 69.6465 68.7001 70.3677C67.9043 71.0888 66.876 71.4505 65.6164 71.4505C64.3569 71.4505 63.3286 71.0935 62.5327 70.3783C61.7369 69.6632 61.3384 68.6942 61.3384 67.469V60.4761H63.3713V67.469C63.3713 68.1166 63.5836 68.6372 64.007 69.0298C64.4304 69.4236 64.9665 69.6205 65.6141 69.6205C66.2616 69.6205 66.7977 69.4248 67.2247 69.0334C67.6505 68.642 67.864 68.1201 67.864 67.469V60.4761H69.8969H69.8945Z" fill="white"/>
<path d="M71.606 71.205V60.4761H73.6388V71.205H71.606Z" fill="white"/>
<path d="M75.3503 60.4761H79.0804C80.6448 60.4761 81.9554 60.9837 83.0098 61.999C84.0642 63.0142 84.592 64.2951 84.592 65.8405C84.592 67.386 84.0642 68.6669 83.0098 69.6821C81.9554 70.6974 80.6448 71.205 79.0804 71.205H75.3503V60.4761ZM82.4749 65.8405C82.4749 64.8668 82.1428 64.0306 81.4798 63.3297C80.8168 62.6287 80.0162 62.2789 79.0804 62.2789H77.3832V69.4034H79.0804C80.0162 69.4034 80.8168 69.0559 81.4798 68.3597C82.144 67.6635 82.4749 66.8238 82.4749 65.8417V65.8405Z" fill="white"/>
<path d="M87.9792 69.4034H93.8264V71.2062H85.9475V60.4773H93.8264V62.2801H87.9792V64.9273H92.8408V66.7301H87.9792V69.4058V69.4034Z" fill="white"/>
<path d="M69.5091 104.557L62.0667 96.4465L69.5091 99.6203L80.2582 92.5681L69.5091 104.558V104.557Z" fill="url(#paint6_linear_12_75)"/>
<path fill-rule="evenodd" clip-rule="evenodd" d="M68.4821 0.712916C70.1188 -0.23829 72.141 -0.23829 73.7777 0.712916L120.211 27.6882C121.835 28.6323 122.835 30.3675 122.835 32.2462V86.3522C122.835 86.7519 122.511 87.0757 122.111 87.0757C121.712 87.0757 121.388 86.7519 121.388 86.3522V32.2462C121.388 30.8834 120.662 29.6239 119.484 28.9395L73.0507 1.96419C71.8635 1.27391 70.3963 1.27391 69.2091 1.96419L22.7744 28.9395C21.5967 29.6239 20.8708 30.8834 20.8708 32.2462V86.3522C20.8708 86.7519 20.547 87.0757 20.1473 87.0757C19.7476 87.0757 19.4238 86.7519 19.4238 86.3522V32.2462C19.4238 30.3675 20.4237 28.6311 22.0474 27.6882L68.4821 0.712916Z" fill="url(#paint7_linear_12_75)"/>
<path d="M19.3325 92.4329C19.3325 90.8377 21.063 89.8438 22.4399 90.6467L70.088 118.411C70.7308 118.786 71.5267 118.786 72.1695 118.411L119.818 90.6467C121.196 89.8438 122.925 90.8377 122.925 92.4329V110.957C122.925 111.692 122.535 112.373 121.899 112.743L72.1695 141.72C71.5267 142.095 70.7308 142.095 70.088 141.72L20.3584 112.743C19.7227 112.373 19.3325 111.692 19.3325 110.957V92.4329Z" fill="url(#paint8_linear_12_75)"/>
<path d="M19.3325 101.238L70.0892 130.813C70.732 131.188 71.5278 131.188 72.1707 130.813L122.926 101.238V110.955C122.926 111.691 122.536 112.371 121.9 112.741L72.1707 141.718C71.5278 142.092 70.732 142.092 70.0892 141.718L20.3596 112.741C19.7239 112.371 19.3337 111.691 19.3337 110.955V101.238H19.3325Z" fill="url(#paint9_linear_12_75)"/>
<path d="M71.1613 17.1181C71.3843 17.5048 71.5859 17.8582 71.7899 18.2093C72.976 20.26 74.1608 22.3118 75.3504 24.3613C75.4133 24.4692 75.424 24.5475 75.3587 24.6602C74.1751 26.6978 73.0009 28.7413 71.8149 30.7766C70.6549 32.7679 69.0549 34.3051 67.0031 35.3666C65.3153 36.2395 63.5185 36.6736 61.622 36.7032C61.1168 36.7104 60.6103 36.7044 60.1039 36.7044H59.8489C63.6252 30.1646 67.3826 23.6603 71.1613 17.1169V17.1181Z" fill="white"/>
<path d="M82.4763 36.7055H82.2367C80.116 36.7055 77.9954 36.7055 75.8748 36.7055C74.7089 36.7055 73.7304 36.2892 72.9524 35.4103C72.0059 34.3417 71.758 32.6469 72.4364 31.3956C73.1386 30.0981 73.8964 28.8314 74.6318 27.5516C75.0481 26.8282 75.4668 26.1059 75.9092 25.342C78.1021 29.1362 80.2785 32.9019 82.4763 36.7067V36.7055Z" fill="white"/>
</g>
<defs>
<linearGradient id="paint0_linear_12_75" x1="71.1293" y1="5.41899" x2="71.1293" y2="132.061" gradientUnits="userSpaceOnUse">
<stop stop-color="#285C1B"/>
<stop offset="1" stop-color="#051530"/>
</linearGradient>
<linearGradient id="paint1_linear_12_75" x1="48.4983" y1="65.8407" x2="93.8265" y2="65.8407" gradientUnits="userSpaceOnUse">
<stop stop-color="#4B9BF3"/>
<stop offset="1" stop-color="#502EE3"/>
</linearGradient>
<linearGradient id="paint2_linear_12_75" x1="48.4983" y1="65.8405" x2="93.8264" y2="65.8405" gradientUnits="userSpaceOnUse">
<stop stop-color="#4B9BF3"/>
<stop offset="1" stop-color="#502EE3"/>
</linearGradient>
<linearGradient id="paint3_linear_12_75" x1="48.4983" y1="65.8405" x2="93.8265" y2="65.8405" gradientUnits="userSpaceOnUse">
<stop stop-color="#4B9BF3"/>
<stop offset="1" stop-color="#502EE3"/>
</linearGradient>
<linearGradient id="paint4_linear_12_75" x1="48.4984" y1="65.8405" x2="93.8265" y2="65.8405" gradientUnits="userSpaceOnUse">
<stop stop-color="#4B9BF3"/>
<stop offset="1" stop-color="#502EE3"/>
</linearGradient>
<linearGradient id="paint5_linear_12_75" x1="48.4982" y1="65.8406" x2="93.8264" y2="65.8406" gradientUnits="userSpaceOnUse">
<stop stop-color="#4B9BF3"/>
<stop offset="1" stop-color="#502EE3"/>
</linearGradient>
<linearGradient id="paint6_linear_12_75" x1="62.0667" y1="98.563" x2="81.1785" y2="99.9355" gradientUnits="userSpaceOnUse">
<stop stop-color="#63F679"/>
<stop offset="1" stop-color="#3FBB52"/>
</linearGradient>
<linearGradient id="paint7_linear_12_75" x1="19.4238" y1="43.5376" x2="128.283" y2="49.6569" gradientUnits="userSpaceOnUse">
<stop stop-color="#63F679"/>
<stop offset="1" stop-color="#3FBB52"/>
</linearGradient>
<linearGradient id="paint8_linear_12_75" x1="19.3325" y1="116.182" x2="127.75" y2="126.477" gradientUnits="userSpaceOnUse">
<stop stop-color="#63F679"/>
<stop offset="1" stop-color="#3FBB52"/>
</linearGradient>
<linearGradient id="paint9_linear_12_75" x1="19.3325" y1="121.618" x2="31.4468" y2="75.0249" gradientUnits="userSpaceOnUse">
<stop stop-color="#63F679"/>
<stop offset="1" stop-color="#3FBB52"/>
</linearGradient>
<clipPath id="clip0_12_75">
<rect width="142.325" height="142.325" fill="white"/>
</clipPath>
</defs>
</svg>
