<svg width="32" height="32" viewBox="0 0 32 32" fill="none" xmlns="http://www.w3.org/2000/svg">
<path fill-rule="evenodd" clip-rule="evenodd" d="M19.9056 2.71308C21.1496 1.46906 22.8369 0.770172 24.5962 0.770172C26.3555 0.770172 28.0428 1.46906 29.2868 2.71308C30.5308 3.9571 31.2297 5.64435 31.2297 7.40366C31.2297 9.16297 30.5308 10.8502 29.2868 12.0942L15.8483 25.5327C15.0805 26.3006 14.63 26.7511 14.1256 27.1435C13.5325 27.6082 12.895 28.0025 12.2131 28.3264C11.638 28.5998 11.0316 28.8024 10.0031 29.1452L5.28279 30.7177L4.14662 31.0974C3.69474 31.2483 3.20978 31.2702 2.74611 31.1609C2.28244 31.0515 1.85839 30.8152 1.52154 30.4783C1.18468 30.1415 0.948319 29.7174 0.838971 29.2538C0.729622 28.7901 0.751605 28.3051 0.902455 27.8532L2.85462 21.9982C3.19745 20.9682 3.40004 20.3619 3.67346 19.7853C3.99834 19.1053 4.39265 18.4678 4.85637 17.8728C5.24737 17.3713 5.69929 16.9194 6.46712 16.1516L19.9056 2.71308ZM5.23321 28.4964L9.25796 27.1534C10.3785 26.7794 10.8545 26.6193 11.298 26.4082C11.8382 26.1495 12.3449 25.8364 12.818 25.469C13.2048 25.1658 13.5618 24.8131 14.3976 23.9772L25.1218 13.2531C23.6514 12.7321 22.3167 11.8878 21.216 10.7824C20.1117 9.68142 19.2684 8.34674 18.7482 6.87666L8.02404 17.6008C7.1882 18.4352 6.83404 18.7908 6.53229 19.179C6.16395 19.6512 5.85087 20.1579 5.59304 20.6991C5.38195 21.1425 5.22187 21.6185 4.84787 22.7391L3.50487 26.7667L5.23321 28.4964ZM20.4695 5.15258C20.519 5.40049 20.5998 5.73766 20.7372 6.13008C21.1516 7.31589 21.8298 8.3922 22.7205 9.27791C23.6058 10.1685 24.6816 10.8466 25.867 11.2612C26.2608 11.3987 26.598 11.4794 26.8459 11.529L27.7837 10.5912C28.6242 9.74476 29.095 8.59974 29.0929 7.40693C29.0908 6.21411 28.616 5.07074 27.7726 4.22729C26.9291 3.38384 25.7858 2.90907 24.5929 2.90699C23.4001 2.9049 22.2551 3.37567 21.4087 4.21616L20.4695 5.15258Z" fill="#D3D2D2"/>
</svg>
