<svg width="41" height="35" viewBox="0 0 41 35" fill="none" xmlns="http://www.w3.org/2000/svg">
<path d="M20.212 0.000250049C20.6099 0.69196 20.9709 1.32172 21.3341 1.95023C23.4524 5.61511 25.57 9.28025 27.6949 12.9414C27.8063 13.1335 27.8262 13.2744 27.7098 13.475C25.5957 17.1159 23.4979 20.766 21.379 24.4039C19.3064 27.9627 16.4481 30.7085 12.7828 32.6055C9.76787 34.1658 6.55712 34.9415 3.16777 34.9932C2.26423 35.0069 1.36019 34.9957 0.456393 34.9959C0.33199 34.9959 0.207588 34.9959 0 34.9959C6.74798 23.3123 13.4597 11.6909 20.212 0V0.000250049Z" fill="white"/>
<path d="M40.4275 34.9959C40.2297 34.9959 40.1145 34.9959 39.9993 34.9959C36.2105 34.9959 32.4215 34.9947 28.6327 34.9959C26.5488 34.9964 24.8015 34.2515 23.4118 32.6822C21.7211 30.773 21.2782 27.7446 22.489 25.5083C23.744 23.1904 25.098 20.9259 26.4117 18.6399C27.1546 17.3472 27.9038 16.0577 28.6937 14.6918C32.6116 21.4715 36.4993 28.199 40.4275 34.9964V34.9959Z" fill="white"/>
</svg>
