<svg width="1920" height="79" viewBox="0 0 1920 79" fill="none" xmlns="http://www.w3.org/2000/svg">
<path d="M0 77.9997L19.15 70.333L38.3 66.4997L49.79 58.833L57.45 54.9997L68.9399 51.1663L76.6 43.4997L84.26 39.6663L95.75 35.833L103.41 31.9997L114.9 28.1663L126.39 24.333L134.05 28.1663L141.71 35.833L153.2 39.6663L160.86 35.833L172.35 31.9997L180.01 24.333L191.5 16.6663L202.99 12.833L210.65 8.99967L222.14 5.16634L229.8 1.33301L237.46 5.16634L248.95 12.833L260.44 16.6663L268.1 20.4997L279.59 24.333L287.25 28.1663L298.74 31.9997L306.4 39.6663L314.06 43.4997L325.55 47.333L337.04 51.1663L344.7 54.9997L352.36 58.833L360.02 62.6663L367.68 66.4997L375.34 62.6663L383 70.333H1920" stroke="white" stroke-opacity="0.8" stroke-width="2"/>
</svg>
