<svg width="230" height="380" viewBox="0 0 230 380" fill="none" xmlns="http://www.w3.org/2000/svg">
<path d="M230 380C204.263 364.527 180.087 347.111 157.775 327.926C107.754 284.917 68.0757 233.858 41.0045 177.663C13.9334 121.468 -2.38425e-06 61.2393 4.52651e-06 0.41452L0.997835 0.41452C0.997829 61.1252 14.905 121.241 41.9256 177.331C68.9461 233.42 108.551 284.385 158.478 327.314C180.585 346.322 204.523 363.589 230 378.948L230 380Z" fill="url(#paint0_linear_12_125)"/>
<path d="M230 347.068C206.501 332.94 184.428 317.039 164.055 299.522C118.384 260.253 82.1561 213.634 57.4389 162.325C32.7218 111.017 20 56.0255 20 0.489868L20.9111 0.489868C20.9111 55.9213 33.6089 110.81 58.2799 162.022C82.9507 213.234 119.112 259.767 164.698 298.963C184.882 316.318 206.739 332.084 230 346.108L230 347.068Z" fill="url(#paint1_linear_12_125)"/>
<path d="M230 314.136C208.739 301.354 188.768 286.967 170.336 271.118C129.014 235.589 96.2364 193.41 73.8733 146.988C51.5102 100.566 40 50.8118 40 0.565217L40.8243 0.565217C40.8243 50.7175 52.3129 100.379 74.6342 146.714C96.9554 193.048 129.672 235.149 170.917 270.613C189.179 286.315 208.954 300.579 230 313.267L230 314.136Z" fill="url(#paint2_linear_12_125)"/>
<path d="M230 281.204C210.977 269.767 193.108 256.895 176.616 242.715C139.645 210.925 110.317 173.186 90.3077 131.65C70.2986 90.1152 60 45.598 60 0.640565L60.7375 0.640565C60.7375 45.5137 71.0168 89.9474 90.9885 131.405C110.96 172.862 140.233 210.532 177.136 242.262C193.476 256.311 211.169 269.074 230 280.426L230 281.204Z" fill="url(#paint3_linear_12_125)"/>
<path d="M230 248.272C213.215 238.18 197.448 226.823 182.897 214.311C150.275 186.261 124.397 152.961 106.742 116.313C89.087 79.6642 80 40.3842 80 0.715943L80.6508 0.715943C80.6508 40.3098 89.7207 79.5161 107.343 116.096C124.965 152.676 150.794 185.914 183.355 213.911C197.773 226.308 213.385 237.569 230 247.586L230 248.272Z" fill="url(#paint4_linear_12_125)"/>
<path d="M230 215.34C215.453 206.594 201.789 196.75 189.177 185.907C160.905 161.597 138.478 132.737 123.176 100.975C107.875 69.2131 100 35.1705 100 0.791322L100.564 0.791322C100.564 35.106 108.425 69.0848 123.697 100.788C138.97 132.49 161.355 161.296 189.575 185.561C202.07 196.304 215.6 206.064 230 214.745L230 215.34Z" fill="url(#paint5_linear_12_125)"/>
<path d="M230 181.541C217.691 174.141 206.129 165.812 195.458 156.636C171.535 136.066 152.558 111.647 139.611 84.7711C126.664 57.8954 120 29.0901 120 3.19486e-05L120.477 3.19543e-05C120.477 29.0356 127.129 57.7868 140.051 84.6122C152.974 111.438 171.916 135.812 195.794 156.343C206.367 165.434 217.815 173.692 230 181.038L230 181.541Z" fill="url(#paint6_linear_12_125)"/>
<path d="M230 148.609C219.929 142.554 210.469 135.739 201.738 128.232C182.165 111.402 166.638 91.4227 156.045 69.4335C145.452 47.4443 140 23.8764 140 0.0753801L140.39 0.0753801C140.39 23.8317 145.832 47.3555 156.406 69.3036C166.979 91.2516 182.476 111.194 202.013 127.993C210.664 135.43 220.031 142.187 230 148.197L230 148.609Z" fill="url(#paint7_linear_12_125)"/>
<path d="M230 148.609C219.929 142.554 210.469 135.739 201.738 128.232C182.165 111.402 166.638 91.4227 156.045 69.4335C145.452 47.4443 140 23.8764 140 0.0753801L140.39 0.0753801C140.39 23.8317 145.832 47.3555 156.406 69.3036C166.979 91.2516 182.476 111.194 202.013 127.993C210.664 135.43 220.031 142.187 230 148.197L230 148.609Z" fill="url(#paint8_linear_12_125)"/>
<path d="M230 115.677C222.167 110.968 214.809 105.667 208.019 99.8282C192.795 86.7385 180.719 71.1987 172.48 54.096C164.241 36.9933 160 18.6626 160 0.150759L160.304 0.150759C160.304 18.6279 164.536 36.9242 172.76 53.9949C180.984 71.0656 193.037 86.5765 208.233 99.6419C214.961 105.427 222.246 110.682 230 115.357L230 115.677Z" fill="url(#paint9_linear_12_125)"/>
<path d="M230 82.7447C224.405 79.381 219.149 75.595 214.299 71.4243C203.425 62.0745 194.799 50.9746 188.914 38.7584C183.029 26.5422 180 13.4489 180 0.226107L180.217 0.226107C180.217 13.4241 183.24 26.4928 189.114 38.6862C194.988 50.8795 203.598 61.9588 214.452 71.2912C219.258 75.4233 224.462 79.1772 230 82.5161L230 82.7447Z" fill="url(#paint10_linear_12_125)"/>
<path d="M230 49.8126C226.643 47.7944 223.49 45.5228 220.579 43.0204C214.055 37.4105 208.879 30.7506 205.348 23.4208C201.817 16.0911 200 8.23514 200 0.301486L200.13 0.301486C200.13 8.22025 201.944 16.0615 205.469 23.3775C208.993 30.6935 214.159 37.3411 220.671 42.9406C223.555 45.4198 226.677 47.6721 230 49.6754L230 49.8126Z" fill="url(#paint11_linear_12_125)"/>
<defs>
<linearGradient id="paint0_linear_12_125" x1="230" y1="380" x2="-117.661" y2="129.976" gradientUnits="userSpaceOnUse">
<stop stop-color="white" stop-opacity="0.75"/>
<stop offset="0.421591" stop-color="white" stop-opacity="0.3"/>
<stop offset="0.632151" stop-color="white" stop-opacity="0.05"/>
<stop offset="1" stop-color="white" stop-opacity="0"/>
</linearGradient>
<linearGradient id="paint1_linear_12_125" x1="230" y1="380" x2="-117.661" y2="129.976" gradientUnits="userSpaceOnUse">
<stop stop-color="white" stop-opacity="0.75"/>
<stop offset="0.421591" stop-color="white" stop-opacity="0.3"/>
<stop offset="0.632151" stop-color="white" stop-opacity="0.05"/>
<stop offset="1" stop-color="white" stop-opacity="0"/>
</linearGradient>
<linearGradient id="paint2_linear_12_125" x1="230" y1="380" x2="-117.661" y2="129.976" gradientUnits="userSpaceOnUse">
<stop stop-color="white" stop-opacity="0.75"/>
<stop offset="0.421591" stop-color="white" stop-opacity="0.3"/>
<stop offset="0.632151" stop-color="white" stop-opacity="0.05"/>
<stop offset="1" stop-color="white" stop-opacity="0"/>
</linearGradient>
<linearGradient id="paint3_linear_12_125" x1="230" y1="380" x2="-117.661" y2="129.976" gradientUnits="userSpaceOnUse">
<stop stop-color="white" stop-opacity="0.75"/>
<stop offset="0.421591" stop-color="white" stop-opacity="0.3"/>
<stop offset="0.632151" stop-color="white" stop-opacity="0.05"/>
<stop offset="1" stop-color="white" stop-opacity="0"/>
</linearGradient>
<linearGradient id="paint4_linear_12_125" x1="230" y1="380" x2="-117.661" y2="129.976" gradientUnits="userSpaceOnUse">
<stop stop-color="white" stop-opacity="0.75"/>
<stop offset="0.421591" stop-color="white" stop-opacity="0.3"/>
<stop offset="0.632151" stop-color="white" stop-opacity="0.05"/>
<stop offset="1" stop-color="white" stop-opacity="0"/>
</linearGradient>
<linearGradient id="paint5_linear_12_125" x1="230" y1="380" x2="-117.661" y2="129.976" gradientUnits="userSpaceOnUse">
<stop stop-color="white" stop-opacity="0.75"/>
<stop offset="0.421591" stop-color="white" stop-opacity="0.3"/>
<stop offset="0.632151" stop-color="white" stop-opacity="0.05"/>
<stop offset="1" stop-color="white" stop-opacity="0"/>
</linearGradient>
<linearGradient id="paint6_linear_12_125" x1="230" y1="380" x2="-117.661" y2="129.976" gradientUnits="userSpaceOnUse">
<stop stop-color="white" stop-opacity="0.75"/>
<stop offset="0.421591" stop-color="white" stop-opacity="0.3"/>
<stop offset="0.632151" stop-color="white" stop-opacity="0.05"/>
<stop offset="1" stop-color="white" stop-opacity="0"/>
</linearGradient>
<linearGradient id="paint7_linear_12_125" x1="230" y1="380" x2="-117.661" y2="129.976" gradientUnits="userSpaceOnUse">
<stop stop-color="white" stop-opacity="0.75"/>
<stop offset="0.421591" stop-color="white" stop-opacity="0.3"/>
<stop offset="0.632151" stop-color="white" stop-opacity="0.05"/>
<stop offset="1" stop-color="white" stop-opacity="0"/>
</linearGradient>
<linearGradient id="paint8_linear_12_125" x1="230" y1="380" x2="-117.661" y2="129.976" gradientUnits="userSpaceOnUse">
<stop stop-color="white" stop-opacity="0.75"/>
<stop offset="0.421591" stop-color="white" stop-opacity="0.3"/>
<stop offset="0.632151" stop-color="white" stop-opacity="0.05"/>
<stop offset="1" stop-color="white" stop-opacity="0"/>
</linearGradient>
<linearGradient id="paint9_linear_12_125" x1="230" y1="380" x2="-117.661" y2="129.976" gradientUnits="userSpaceOnUse">
<stop stop-color="white" stop-opacity="0.75"/>
<stop offset="0.421591" stop-color="white" stop-opacity="0.3"/>
<stop offset="0.632151" stop-color="white" stop-opacity="0.05"/>
<stop offset="1" stop-color="white" stop-opacity="0"/>
</linearGradient>
<linearGradient id="paint10_linear_12_125" x1="230" y1="380" x2="-117.661" y2="129.976" gradientUnits="userSpaceOnUse">
<stop stop-color="white" stop-opacity="0.75"/>
<stop offset="0.421591" stop-color="white" stop-opacity="0.3"/>
<stop offset="0.632151" stop-color="white" stop-opacity="0.05"/>
<stop offset="1" stop-color="white" stop-opacity="0"/>
</linearGradient>
<linearGradient id="paint11_linear_12_125" x1="230" y1="380" x2="-117.661" y2="129.976" gradientUnits="userSpaceOnUse">
<stop stop-color="white" stop-opacity="0.75"/>
<stop offset="0.421591" stop-color="white" stop-opacity="0.3"/>
<stop offset="0.632151" stop-color="white" stop-opacity="0.05"/>
<stop offset="1" stop-color="white" stop-opacity="0"/>
</linearGradient>
</defs>
</svg>
