<svg width="26" height="26" viewBox="0 0 26 26" fill="none" xmlns="http://www.w3.org/2000/svg">
<path d="M25.097 13.2778C25.097 12.25 25.0146 11.5 24.8364 10.7222H13.2471V15.3611H20.0497C19.9126 16.5139 19.172 18.25 17.5262 19.4166L17.5031 19.5719L21.1674 22.4466L21.4213 22.4722C23.7528 20.2916 25.097 17.0833 25.097 13.2778Z" fill="#4285F4"/>
<path d="M13.2467 25.5C16.5795 25.5 19.3773 24.3888 21.421 22.4722L17.5258 19.4166C16.4835 20.1527 15.0845 20.6666 13.2467 20.6666C9.98256 20.6666 7.21212 18.4861 6.22453 15.4722L6.07978 15.4847L2.26955 18.4708L2.21973 18.6111C4.24955 22.6944 8.41897 25.5 13.2467 25.5Z" fill="#34A853"/>
<path d="M6.22475 15.4723C5.96417 14.6945 5.81336 13.8611 5.81336 13C5.81336 12.1389 5.96417 11.3056 6.21104 10.5278L6.20414 10.3622L2.34617 7.32806L2.21994 7.38886C1.38336 9.08333 0.90332 10.9861 0.90332 13C0.90332 15.0139 1.38336 16.9166 2.21994 18.6111L6.22475 15.4723Z" fill="#FBBC05"/>
<path d="M13.2468 5.3333C15.5646 5.3333 17.1281 6.34718 18.0196 7.19447L21.5032 3.75C19.3637 1.73612 16.5795 0.5 13.2468 0.5C8.41897 0.5 4.24955 3.30553 2.21973 7.38884L6.21082 10.5278C7.21212 7.51388 9.98256 5.3333 13.2468 5.3333Z" fill="#EB4335"/>
</svg>
