<svg width="19" height="19" viewBox="0 0 19 19" fill="none" xmlns="http://www.w3.org/2000/svg">
<path id="Vector" d="M5.2041 0.281738C2.4431 0.281738 0.204102 2.52074 0.204102 5.28174V13.2817C0.204102 16.0427 2.4431 18.2817 5.2041 18.2817H13.2041C15.9651 18.2817 18.2041 16.0427 18.2041 13.2817V5.28174C18.2041 2.52074 15.9651 0.281738 13.2041 0.281738H5.2041ZM15.2041 2.28174C15.7561 2.28174 16.2041 2.72974 16.2041 3.28174C16.2041 3.83374 15.7561 4.28174 15.2041 4.28174C14.6521 4.28174 14.2041 3.83374 14.2041 3.28174C14.2041 2.72974 14.6521 2.28174 15.2041 2.28174ZM9.2041 4.28174C11.9651 4.28174 14.2041 6.52074 14.2041 9.28174C14.2041 12.0427 11.9651 14.2817 9.2041 14.2817C6.4431 14.2817 4.2041 12.0427 4.2041 9.28174C4.2041 6.52074 6.4431 4.28174 9.2041 4.28174ZM9.2041 6.28174C8.40845 6.28174 7.64539 6.59781 7.08278 7.16042C6.52017 7.72303 6.2041 8.48609 6.2041 9.28174C6.2041 10.0774 6.52017 10.8405 7.08278 11.4031C7.64539 11.9657 8.40845 12.2817 9.2041 12.2817C9.99975 12.2817 10.7628 11.9657 11.3254 11.4031C11.888 10.8405 12.2041 10.0774 12.2041 9.28174C12.2041 8.48609 11.888 7.72303 11.3254 7.16042C10.7628 6.59781 9.99975 6.28174 9.2041 6.28174Z" fill="white"/>
</svg>
