<svg width="18" height="19" viewBox="0 0 18 19" fill="none" xmlns="http://www.w3.org/2000/svg">
<path id="Vector" d="M16.196 0.481689H1.79604C0.912045 0.481689 0.196045 1.19769 0.196045 2.08169V16.4817C0.196045 17.3657 0.912045 18.0817 1.79604 18.0817H16.196C17.08 18.0817 17.796 17.3657 17.796 16.4817V2.08169C17.796 1.19769 17.08 0.481689 16.196 0.481689ZM5.75925 14.8817H3.39924V7.28809H5.75925V14.8817ZM4.55525 6.20249C3.79445 6.20249 3.17924 5.58569 3.17924 4.82649C3.17924 4.06729 3.79525 3.45129 4.55525 3.45129C5.31365 3.45129 5.93045 4.06809 5.93045 4.82649C5.93045 5.58569 5.31365 6.20249 4.55525 6.20249ZM14.5992 14.8817H12.2408V11.1889C12.2408 10.3081 12.2248 9.17529 11.0144 9.17529C9.78645 9.17529 9.59764 10.1345 9.59764 11.1249V14.8817H7.23924V7.28809H9.50325V8.32569H9.53524C9.85044 7.72889 10.62 7.09929 11.768 7.09929C14.1576 7.09929 14.5992 8.67209 14.5992 10.7169V14.8817Z" fill="white"/>
</svg>
