<svg width="36" height="30" viewBox="0 0 36 30" fill="none" xmlns="http://www.w3.org/2000/svg">
<path id="Vector" d="M26.9628 7.71362C26.4662 7.6146 26.0596 7.30405 25.8496 6.85997C23.5242 1.95262 18.1337 -0.791359 12.7463 0.201813C7.83744 1.10197 3.98927 5.02065 3.16862 9.95501C2.92558 11.4118 2.94358 12.87 3.21813 14.2908C3.30815 14.7543 3.10861 15.2704 2.69904 15.6425C0.981242 17.2043 -0.00292969 19.4292 -0.00292969 21.7486C-0.00292969 26.2974 3.69821 30 8.24851 30H24.7514C30.9565 30 36.0033 24.9531 36.0033 18.748C36.0033 13.3996 32.2017 8.7578 26.9628 7.71362ZM22.6825 17.5583C22.39 17.8509 22.0059 17.9979 21.6218 17.9979C21.2378 17.9979 20.8537 17.8509 20.5612 17.5583L18.0002 14.9974V22.4987C18.0002 23.3283 17.3281 23.999 16.4999 23.999C15.6718 23.999 14.9997 23.3283 14.9997 22.4987V14.9974L12.4387 17.5583C11.8521 18.1449 10.904 18.1449 10.3174 17.5583C9.73077 16.9717 9.73077 16.0236 10.3174 15.437L14.3786 11.3758C14.9577 10.7967 15.7183 10.5056 16.4789 10.5011L16.4999 10.4966L16.5209 10.5011C17.2831 10.5056 18.0422 10.7967 18.6213 11.3758L22.6825 15.437C23.2691 16.0236 23.2691 16.9717 22.6825 17.5583Z" fill="url(#paint0_linear_39_103)"/>
<defs>
<linearGradient id="paint0_linear_39_103" x1="-0.00292966" y1="15" x2="35.4071" y2="16.2111" gradientUnits="userSpaceOnUse">
<stop stop-color="#121212"/>
<stop offset="1" stop-color="#212121"/>
</linearGradient>
</defs>
</svg>
